<?xml version="1.0" encoding="UTF-8"?>
<svg width="700pt" height="700pt" version="1.1" viewBox="0 0 700 700" xmlns="http://www.w3.org/2000/svg">
 <g fill-rule="evenodd">
  <path d="m116.67 70c0-12.887 10.445-23.332 23.332-23.332h210v46.664h-186.67v373.34h373.34v-186.67h46.664v210c0 12.887-10.445 23.332-23.332 23.332h-420c-12.887 0-23.332-10.445-23.332-23.332z"/>
  <path d="m491.71 46.668c6.1875 0 12.121 2.457 16.5 6.832l68.293 68.293c9.1094 9.1133 9.1094 23.887 0 33l-204.88 204.88c-3.8594 3.8594-8.9492 6.2461-14.387 6.7383l-75.121 6.832c-6.8984 0.62891-13.715-1.8398-18.613-6.7383-4.8945-4.8945-7.3633-11.715-6.7383-18.613l6.8281-75.121c0.49609-5.4375 2.8789-10.527 6.7422-14.387l204.88-204.88c4.375-4.375 10.309-6.832 16.496-6.832zm-28.465 84.797 35.297 35.293 28.465-28.465-35.297-35.293zm2.2969 68.293-35.297-35.297-120.94 120.94-3.5273 38.824 38.824-3.5273z"/>
 </g>
</svg>
