<svg version="1.1" viewBox="0.0 0.0 400.0 100.0" fill="none" stroke="none" stroke-linecap="square" stroke-miterlimit="10" xmlns:xlink="http://www.w3.org/1999/xlink" xmlns="http://www.w3.org/2000/svg"><clipPath id="g1b80ec2837f_0_0.0"><path d="m0 0l400.0 0l0 100.0l-400.0 0l0 -100.0z" clip-rule="nonzero"/></clipPath><g clip-path="url(#g1b80ec2837f_0_0.0)"><path fill="#ffffff" d="m0 0l400.0 0l0 100.0l-400.0 0z" fill-rule="evenodd"/><path fill="#000000" fill-opacity="0.0" d="m46.881855 -24.223097l416.56693 0l0 133.35432l-416.56693 0z" fill-rule="evenodd"/><path fill="#ffffff" d="m105.16311 55.209396q-3.140625 0 -5.765625 -1.015625q-2.625 -1.03125 -4.5625 -2.90625q-1.9375 -1.875 -3.015625 -4.390625q-1.078125 -2.515625 -1.078125 -5.53125q0 -3.015625 1.078125 -5.515625q1.078125 -2.515625 3.03125 -4.390623q1.953125 -1.875 4.578125 -2.90625q2.640625 -1.03125 5.8125 -1.03125q3.203125 0 5.859375 1.046875q2.671875 1.046875 4.53125 3.140625l-2.390625 2.390623q-1.671875 -1.625 -3.625 -2.374998q-1.953125 -0.75 -4.234375 -0.75q-2.3125 0 -4.3125 0.78125q-1.984375 0.7656231 -3.4375 2.156248q-1.4375 1.390625 -2.234375 3.3125q-0.796875 1.90625 -0.796875 4.140625q0 2.203125 0.796875 4.125q0.796875 1.90625 2.234375 3.328125q1.453125 1.40625 3.421875 2.1875q1.96875 0.765625 4.296875 0.765625q2.15625 0 4.140625 -0.671875q2.0 -0.6875 3.703125 -2.265625l2.203125 2.9375q-2.0 1.6875 -4.6875 2.5625q-2.6875 0.875 -5.546875 0.875zm6.53125 -3.953125l0 -10.046875l3.703125 0l0 10.5625l-3.703125 -0.515625zm19.670738 3.875q-3.28125 0 -5.7812424 -1.34375q-2.484375 -1.359375 -3.859375 -3.71875q-1.375 -2.359375 -1.375 -5.421875q0 -3.046875 1.328125 -5.40625q1.34375 -2.359375 3.671875 -3.6875q2.34375 -1.34375 5.2812424 -1.34375q2.96875 0 5.25 1.328125q2.28125 1.3125 3.578125 3.6875q1.296875 2.375 1.296875 5.546875q0 0.234375 -0.015625 0.546875q-0.015625 0.296875 -0.0625 0.578125l-17.437492 0l0 -2.671875l15.515617 0l-1.515625 0.921875q0.046875 -1.96875 -0.8125 -3.515625q-0.84375 -1.546875 -2.34375 -2.40625q-1.484375 -0.875 -3.453125 -0.875q-1.9375 0 -3.4531174 0.875q-1.5 0.859375 -2.359375 2.4375q-0.84375 1.5625 -0.84375 3.5625l0 0.625q0 2.046875 0.953125 3.65625q0.953125 1.59375 2.640625 2.484375q1.7031174 0.890625 3.9062424 0.890625q1.828125 0 3.3125 -0.609375q1.484375 -0.625 2.609375 -1.859375l2.046875 2.390625q-1.390625 1.625 -3.46875 2.484375q-2.0625 0.84375 -4.609375 0.84375zm20.407623 0q-2.546875 0 -4.859375 -0.6875q-2.296875 -0.703125 -3.609375 -1.71875l1.546875 -2.9375q1.3125 0.890625 3.25 1.515625q1.9375 0.625 3.9375 0.625q2.59375 0 3.734375 -0.734375q1.140625 -0.75 1.140625 -2.0625q0 -0.953125 -0.703125 -1.5q-0.6875 -0.546875 -1.828125 -0.8125q-1.140625 -0.265625 -2.53125 -0.484375q-1.390625 -0.21875 -2.78125 -0.546875q-1.390625 -0.328125 -2.5625 -0.921875q-1.15625 -0.59375 -1.859375 -1.65625q-0.6875 -1.0625 -0.6875 -2.84375q0 -1.859375 1.046875 -3.25q1.046875 -1.390625 2.953125 -2.140625q1.921875 -0.765625 4.546875 -0.765625q2.015625 0 4.078125 0.484375q2.078125 0.484375 3.390625 1.375l-1.59375 2.9375q-1.390625 -0.921875 -2.90625 -1.265625q-1.5 -0.359375 -3.0 -0.359375q-2.4375 0 -3.640625 0.796875q-1.203125 0.796875 -1.203125 2.03125q0 1.046875 0.71875 1.609375q0.71875 0.546875 1.859375 0.859375q1.140625 0.3125 2.53125 0.53125q1.390625 0.203125 2.78125 0.53125q1.390625 0.328125 2.53125 0.921875q1.140625 0.578125 1.859375 1.625q0.71875 1.03125 0.71875 2.765625q0 1.859375 -1.09375 3.21875q-1.078125 1.34375 -3.046875 2.109375q-1.96875 0.75 -4.71875 0.75zm20.523026 0q-3.09375 0 -4.796875 -1.65625q-1.6875 -1.671875 -1.6875 -4.765625l0 -18.781248l3.703125 0l0 18.624998q0 1.671875 0.828125 2.5625q0.84375 0.875 2.390625 0.875q1.734375 0 2.890625 -0.953125l1.15625 2.65625q-0.84375 0.734375 -2.03125 1.09375q-1.171875 0.34375 -2.453125 0.34375zm-9.96875 -17.671875l0 -3.046875l13.0625 0l0 3.046875l-13.0625 0zm18.941177 17.4375l0 -20.484375l3.71875 0l0 20.484375l-3.71875 0zm1.859375 -24.437498q-1.078125 0 -1.796875 -0.6875q-0.71875 -0.703125 -0.71875 -1.703125q0 -1.046875 0.71875 -1.734375q0.71875 -0.703125 1.796875 -0.703125q1.078125 0 1.796875 0.6875q0.71875 0.671875 0.71875 1.671875q0 1.046875 -0.703125 1.765625q-0.6875 0.703125 -1.8125 0.703125zm17.70697 24.671873q-3.09375 0 -5.5 -1.34375q-2.390625 -1.359375 -3.78125 -3.734375q-1.390625 -2.390625 -1.390625 -5.40625q0 -3.046875 1.390625 -5.40625q1.390625 -2.359375 3.78125 -3.6875q2.40625 -1.34375 5.5 -1.34375q3.046875 0 5.453125 1.34375q2.421875 1.328125 3.796875 3.671875q1.375 2.328125 1.375 5.421875q0 3.0625 -1.375 5.421875q-1.375 2.359375 -3.796875 3.71875q-2.40625 1.34375 -5.453125 1.34375zm0 -3.25q1.96875 0 3.53125 -0.890625q1.5625 -0.890625 2.453125 -2.53125q0.890625 -1.640625 0.890625 -3.8125q0 -2.203125 -0.890625 -3.796875q-0.890625 -1.609375 -2.453125 -2.5q-1.5625 -0.890625 -3.53125 -0.890625q-1.96875 0 -3.515625 0.890625q-1.546875 0.890625 -2.484375 2.5q-0.921875 1.59375 -0.921875 3.796875q0 2.171875 0.921875 3.8125q0.9375 1.640625 2.484375 2.53125q1.546875 0.890625 3.515625 0.890625zm-2.9375 -20.453123l5.25 -5.015625l4.71875 0l-6.5 5.015625l-3.46875 0zm29.640457 2.781248q2.515625 0 4.421875 0.96875q1.921875 0.96875 3.0 2.9375q1.09375 1.96875 1.09375 4.984375l0 11.796875l-3.71875 0l0 -11.359375q0 -2.984375 -1.453125 -4.484375q-1.4375 -1.515625 -4.078125 -1.515625q-1.96875 0 -3.4375 0.78125q-1.46875 0.765625 -2.265625 2.28125q-0.78125 1.5 -0.78125 3.75l0 10.546875l-3.71875 0l0 -20.484375l3.5625 0l0 5.53125l-0.578125 -1.46875q1.0 -2.015625 3.078125 -3.140625q2.09375 -1.125 4.875 -1.125zm36.72342 0q2.515625 0 4.421875 0.96875q1.921875 0.96875 3.0 2.9375q1.09375 1.96875 1.09375 4.984375l0 11.796875l-3.71875 0l0 -11.359375q0 -2.984375 -1.453125 -4.484375q-1.4375 -1.515625 -4.078125 -1.515625q-1.96875 0 -3.4375 0.78125q-1.46875 0.765625 -2.265625 2.28125q-0.78125 1.5 -0.78125 3.75l0 10.546875l-3.71875 0l0 -28.687498l3.71875 0l0 13.734373l-0.734375 -1.46875q1.0 -2.015625 3.078125 -3.140625q2.09375 -1.125 4.875 -1.125zm24.16864 20.921875q-3.09375 0 -5.5 -1.34375q-2.390625 -1.359375 -3.78125 -3.734375q-1.390625 -2.390625 -1.390625 -5.40625q0 -3.046875 1.390625 -5.40625q1.390625 -2.359375 3.78125 -3.6875q2.40625 -1.34375 5.5 -1.34375q3.046875 0 5.453125 1.34375q2.421875 1.328125 3.796875 3.671875q1.375 2.328125 1.375 5.421875q0 3.0625 -1.375 5.421875q-1.375 2.359375 -3.796875 3.71875q-2.40625 1.34375 -5.453125 1.34375zm0 -3.25q1.96875 0 3.53125 -0.890625q1.5625 -0.890625 2.453125 -2.53125q0.890625 -1.640625 0.890625 -3.8125q0 -2.203125 -0.890625 -3.796875q-0.890625 -1.609375 -2.453125 -2.5q-1.5625 -0.890625 -3.53125 -0.890625q-1.96875 0 -3.515625 0.890625q-1.546875 0.890625 -2.484375 2.5q-0.921875 1.59375 -0.921875 3.796875q0 2.171875 0.921875 3.8125q0.9375 1.640625 2.484375 2.53125q1.546875 0.890625 3.515625 0.890625zm15.765472 3.015625l0 -20.484375l3.5625 0l0 5.5625l-0.359375 -1.390625q0.859375 -2.125 2.859375 -3.25q2.015625 -1.125 4.953125 -1.125l0 3.59375q-0.234375 -0.03125 -0.453125 -0.03125q-0.203125 0 -0.390625 0q-2.984375 0 -4.71875 1.78125q-1.734375 1.78125 -1.734375 5.140625l0 10.203125l-3.71875 0zm26.789154 0l0 -4.328125l-0.1875 -0.8125l0 -7.390625q0 -2.34375 -1.375 -3.640625q-1.375 -1.296875 -4.125 -1.296875q-1.8125 0 -3.5625 0.59375q-1.734375 0.59375 -2.921875 1.609375l-1.546875 -2.78125q1.578125 -1.28125 3.796875 -1.953125q2.234375 -0.6875 4.671875 -0.6875q4.203125 0 6.484375 2.0625q2.28125 2.046875 2.28125 6.25l0 12.375l-3.515625 0zm-6.71875 0.234375q-2.28125 0 -4.015625 -0.765625q-1.71875 -0.78125 -2.640625 -2.15625q-0.921875 -1.375 -0.921875 -3.109375q0 -1.65625 0.78125 -3.015625q0.796875 -1.359375 2.59375 -2.171875q1.796875 -0.8125 4.859375 -0.8125l6.484375 0l0 2.671875l-6.328125 0q-2.796875 0 -3.765625 0.9375q-0.953125 0.921875 -0.953125 2.234375q0 1.5 1.1875 2.421875q1.203125 0.90625 3.328125 0.90625q2.09375 0 3.65625 -0.921875q1.5625 -0.9375 2.265625 -2.71875l0.734375 2.546875q-0.734375 1.828125 -2.59375 2.890625q-1.859375 1.0625 -4.671875 1.0625zm17.116394 -0.234375l0 -20.484375l3.5625 0l0 5.5625l-0.359375 -1.390625q0.859375 -2.125 2.859375 -3.25q2.015625 -1.125 4.953125 -1.125l0 3.59375q-0.234375 -0.03125 -0.453125 -0.03125q-0.203125 0 -0.390625 0q-2.984375 0 -4.71875 1.78125q-1.734375 1.78125 -1.734375 5.140625l0 10.203125l-3.71875 0zm15.57843 0l0 -20.484375l3.71875 0l0 20.484375l-3.71875 0zm1.859375 -24.437498q-1.078125 0 -1.796875 -0.6875q-0.71875 -0.703125 -0.71875 -1.703125q0 -1.046875 0.71875 -1.734375q0.71875 -0.703125 1.796875 -0.703125q1.078125 0 1.796875 0.6875q0.71875 0.671875 0.71875 1.671875q0 1.046875 -0.703125 1.765625q-0.6875 0.703125 -1.8125 0.703125zm21.64447 24.437498l0 -4.328125l-0.1875 -0.8125l0 -7.390625q0 -2.34375 -1.375 -3.640625q-1.375 -1.296875 -4.125 -1.296875q-1.8125 0 -3.5625 0.59375q-1.734375 0.59375 -2.921875 1.609375l-1.546875 -2.78125q1.578125 -1.28125 3.796875 -1.953125q2.234375 -0.6875 4.671875 -0.6875q4.203125 0 6.484375 2.0625q2.28125 2.046875 2.28125 6.25l0 12.375l-3.515625 0zm-6.71875 0.234375q-2.28125 0 -4.015625 -0.765625q-1.71875 -0.78125 -2.640625 -2.15625q-0.921875 -1.375 -0.921875 -3.109375q0 -1.65625 0.78125 -3.015625q0.796875 -1.359375 2.59375 -2.171875q1.796875 -0.8125 4.859375 -0.8125l6.484375 0l0 2.671875l-6.328125 0q-2.796875 0 -3.765625 0.9375q-0.953125 0.921875 -0.953125 2.234375q0 1.5 1.1875 2.421875q1.203125 0.90625 3.328125 0.90625q2.09375 0 3.65625 -0.921875q1.5625 -0.9375 2.265625 -2.71875l0.734375 2.546875q-0.734375 1.828125 -2.59375 2.890625q-1.859375 1.0625 -4.671875 1.0625z" fill-rule="nonzero"/><path fill="#000000" fill-opacity="0.0" d="m46.881855 10.887139l416.56693 0l0 133.35432l-416.56693 0z" fill-rule="evenodd"/><path fill="#ffffff" d="m104.147484 90.31963q-5.328125 0 -8.390625 -3.046875q-3.046875 -3.0625 -3.046875 -8.9375l0 -15.390625l3.859375 0l0 15.234375q0 4.515625 1.984375 6.609375q2.0 2.09375 5.640625 2.09375q3.671875 0 5.65625 -2.09375q2.0 -2.09375 2.0 -6.609375l0 -15.234375l3.75 0l0 15.390625q0 5.875 -3.046875 8.9375q-3.03125 3.046875 -8.40625 3.046875zm19.373962 -0.3125l0 -27.0625l11.406242 0q4.328125 0 7.625 1.703125q3.3125 1.703125 5.140625 4.765625q1.84375 3.046875 1.84375 7.0625q0 4.015625 -1.84375 7.078125q-1.828125 3.046875 -5.140625 4.75q-3.296875 1.703125 -7.625 1.703125l-11.406242 0zm3.859375 -3.359375l7.3124924 0q3.359375 0 5.8125 -1.28125q2.453125 -1.28125 3.796875 -3.578125q1.359375 -2.296875 1.359375 -5.3125q0 -3.046875 -1.359375 -5.328125q-1.34375 -2.28125 -3.796875 -3.5625q-2.453125 -1.28125 -5.8125 -1.28125l-7.3124924 0l0 20.34375zm40.16442 3.671875q-3.09375 0 -5.703125 -1.015625q-2.609375 -1.03125 -4.53125 -2.90625q-1.90625 -1.875 -2.984375 -4.390625q-1.078125 -2.515625 -1.078125 -5.53125q0 -3.015625 1.078125 -5.515625q1.078125 -2.515625 3.015625 -4.390625q1.9375 -1.875 4.546875 -2.90625q2.609375 -1.03125 5.703125 -1.03125q3.125 0 5.765625 1.0625q2.65625 1.0625 4.515625 3.15625l-2.515625 2.4375q-1.546875 -1.625 -3.484375 -2.40625q-1.921875 -0.796875 -4.125 -0.796875q-2.28125 0 -4.234375 0.78125q-1.953125 0.765625 -3.390625 2.15625q-1.421875 1.390625 -2.21875 3.3125q-0.796875 1.90625 -0.796875 4.140625q0 2.25 0.796875 4.171875q0.796875 1.90625 2.21875 3.296875q1.4375 1.390625 3.390625 2.171875q1.953125 0.765625 4.234375 0.765625q2.203125 0 4.125 -0.796875q1.9375 -0.796875 3.484375 -2.453125l2.515625 2.4375q-1.859375 2.078125 -4.515625 3.171875q-2.640625 1.078125 -5.8125 1.078125z" fill-rule="nonzero"/><path fill="#000000" d="m7.7712717 50.002968l0 0c0 -23.946377 19.59842 -43.35875 43.774292 -43.35875l0 0c11.609661 0 22.743828 4.568141 30.953094 12.699484c8.209274 8.131342 12.8211975 19.159811 12.8211975 30.659266l0 0c0 23.946373 -19.59842 43.35875 -43.774292 43.35875l0 0c-24.175873 0 -43.774292 -19.412376 -43.774292 -43.35875z" fill-rule="evenodd"/><path stroke="#ffffff" stroke-width="12.0" stroke-linejoin="round" stroke-linecap="butt" d="m7.7712717 50.002968l0 0c0 -23.946377 19.59842 -43.35875 43.774292 -43.35875l0 0c11.609661 0 22.743828 4.568141 30.953094 12.699484c8.209274 8.131342 12.8211975 19.159811 12.8211975 30.659266l0 0c0 23.946373 -19.59842 43.35875 -43.774292 43.35875l0 0c-24.175873 0 -43.774292 -19.412376 -43.774292 -43.35875z" fill-rule="evenodd"/><path fill="#000000" fill-opacity="0.0" d="m51.545563 6.6442184l0.645031 40.945084" fill-rule="evenodd"/><path stroke="#ffffff" stroke-width="8.0" stroke-linejoin="round" stroke-linecap="butt" d="m51.545563 6.6442184l0.645031 40.945084" fill-rule="evenodd"/><path fill="#000000" fill-opacity="0.0" d="m48.088284 47.153095l42.04443 0.43620682" fill-rule="evenodd"/><path stroke="#ffffff" stroke-width="8.0" stroke-linejoin="round" stroke-linecap="butt" d="m48.088284 47.153095l42.04443 0.43620682" fill-rule="evenodd"/></g></svg>